PathFileType	4	(X/Y/Z)	 s05c0401.trc
DataRate	CameraRate	NumFrames	NumMarkers	Units	OrigDataRate	OrigDataStartFrame	OrigNumFrames
200	200	4	50	mm	200	1251	2000
Frame#	Time	racr			lacr			c7			jug			rlel			rdr			llel			ldr			s2			lic			ric			lasi			rasi			rpsi			lpsi			rgt			lgt			rth1			rth2			rth3			rth4			rlfc			rmfc			rsh1			rsh2			rsh3			rsh4			rlmal			rmmal			rcal			rtoe			rmt5			lth1			lth2			lth4			lth3			llfc			lmfc			lsh1			lsh2			lsh3			lsh4			llmal			lmmal			lcal			ltoe			lmt5			SBIKE			LBIKE			RBIKE			
		X1	Y1	Z1	X2	Y2	Z2	X3	Y3	Z3	X4	Y4	Z4	X5	Y5	Z5	X6	Y6	Z6	X7	Y7	Z7	X8	Y8	Z8	X9	Y9	Z9	X10	Y10	Z10	X11	Y11	Z11	X12	Y12	Z12	X13	Y13	Z13	X14	Y14	Z14	X15	Y15	Z15	X16	Y16	Z16	X17	Y17	Z17	X18	Y18	Z18	X19	Y19	Z19	X20	Y20	Z20	X21	Y21	Z21	X22	Y22	Z22	X23	Y23	Z23	X24	Y24	Z24	X25	Y25	Z25	X26	Y26	Z26	X27	Y27	Z27	X28	Y28	Z28	X29	Y29	Z29	X30	Y30	Z30	X31	Y31	Z31	X32	Y32	Z32	X33	Y33	Z33	X34	Y34	Z34	X35	Y35	Z35	X36	Y36	Z36	X37	Y37	Z37	X38	Y38	Z38	X39	Y39	Z39	X40	Y40	Z40	X41	Y41	Z41	X42	Y42	Z42	X43	Y43	Z43	X44	Y44	Z44	X45	Y45	Z45	X46	Y46	Z46	X47	Y47	Z47	X48	Y48	Z48	X49	Y49	Z49	X50	Y50	Z50	
1251	6.2550	808.432234	1282.854512	-104.169943	770.945618	1350.169778	-401.194682	778.566430	1406.697560	-250.295408	735.978807	1244.790115	-269.942560	605.826521	1147.488050	82.692410	684.249549	967.845553	-34.302478	577.342733	1179.906011	-566.417755	688.331760	962.046870	-499.013330	193.409605	1243.743581	-286.486414	359.167014	1239.066905	-403.692897	322.159173	1228.848838	-126.294414	383.969040	1170.918444	-370.315219	353.472130	1163.880581	-152.040136	231.585160	1281.560701	-236.054413	246.277834	1286.725669	-322.643676	244.259156	1104.551942	-115.272194	282.119033	1142.746915	-451.487187	304.480830	998.114916	-96.224972	361.173816	930.231189	-89.688287	375.544786	843.494275	-96.831341	394.853635	945.877163	-95.141562	445.526440	711.182455	-113.903663	437.966790	707.437695	-222.859562	375.300918	625.192010	-88.522849	362.190635	537.829307	-99.418155	311.577298	469.223404	-102.317080	391.121494	528.629170	-123.449946	262.862485	343.084138	-113.327786	285.744032	363.418601	-191.962895	188.683084	331.143381	-159.420315	463.523661	219.776045	-144.284067	358.115023	230.461382	-82.908620	361.542528	1020.768936	-458.334770	427.585251	967.442900	-446.678213	453.534292	985.537214	-426.143100	459.252711	882.145641	-446.536999	505.713062	744.524857	-413.049175	473.118597	739.018679	-308.382546	392.280039	693.018260	-449.544599	325.604794	638.067483	-440.153004	239.157422	620.401388	-448.718129	338.350784	612.105039	-414.213593	134.774405	565.197323	-451.581350	162.162429	563.672925	-370.378383	74.729060	605.940118	-413.749423	160.875951	325.365727	-383.405330	101.807765	409.222539	-458.834665	-213.760568	916.178520	-266.749221	-43.442711	85.422146	-474.870388	-51.789356	80.124402	-77.351727	
1252	6.2600	808.470636	1284.922925	-105.627670	770.019626	1351.187698	-403.034721	777.876170	1407.689751	-251.861617	735.930030	1245.887247	-271.177939	606.916076	1148.727955	82.093282	684.632548	967.711255	-33.684188	576.463933	1179.464453	-567.041877	689.010546	961.978062	-500.003560	193.483678	1241.582107	-285.911044	358.688015	1239.214188	-403.083169	322.668989	1225.439153	-125.760359	384.009267	1170.897299	-370.201531	354.062760	1161.226127	-151.899774	231.725056	1278.717197	-234.593302	245.988560	1285.190263	-321.605568	243.639252	1100.834461	-116.251447	283.399159	1143.214603	-451.672347	301.767119	993.640061	-96.949239	356.944587	924.076828	-91.458037	369.412649	836.974846	-98.467316	391.205640	939.240896	-96.545133	437.357812	703.851101	-116.039830	428.625579	700.075616	-224.652935	367.608699	617.545129	-89.719887	355.488484	530.321415	-100.752805	305.493163	461.137308	-103.227657	384.306996	521.150013	-125.030306	257.630708	334.774698	-113.785615	280.376529	354.629002	-192.531284	183.577408	323.210893	-159.760171	457.475623	209.455862	-144.564029	352.179346	221.208887	-83.320346	365.231212	1022.920059	-459.359880	432.534686	971.185874	-447.298667	457.744506	989.784022	-426.234832	466.397317	886.797951	-447.687732	515.296768	750.030688	-413.749992	482.708063	744.574697	-309.226391	402.616716	699.021340	-450.392233	335.042683	644.762864	-440.909004	248.653172	628.075092	-450.205349	347.267929	618.869008	-414.892989	142.947632	573.480108	-452.402111	170.054856	572.013035	-371.466512	83.242803	614.937164	-414.484469	166.850926	333.725159	-383.102954	108.640914	417.918761	-458.730337	-213.673834	916.203789	-266.646853	-43.402003	85.433289	-474.872929	-51.750960	80.144199	-77.370514	
1253	6.2650	807.811559	1287.434381	-106.697587	769.317816	1352.290684	-406.231164	777.127187	1408.777303	-253.739176	735.773875	1246.830086	-272.452547	607.760023	1150.639392	82.513253	684.932594	967.811175	-33.310134	575.748265	1178.822542	-568.019154	689.529543	962.052503	-500.895235	192.795540	1239.741023	-284.354755	357.968091	1239.457780	-402.332603	323.841356	1222.382945	-124.617960	383.970020	1171.032033	-370.021462	354.745409	1158.379866	-151.662114	231.947280	1275.822116	-233.080379	245.255022	1284.039134	-319.978674	243.206145	1097.070930	-117.138188	284.440597	1143.880248	-451.764669	299.569465	989.187661	-98.205284	352.934677	918.324496	-92.520309	363.270615	830.972577	-100.027556	387.081176	932.372453	-98.259675	429.041745	696.760850	-117.981374	419.146007	692.871675	-226.301353	359.832286	610.233630	-91.116416	348.285078	522.920518	-101.985569	298.675451	453.248096	-104.495526	377.054883	513.969405	-126.393253	251.783917	326.831325	-114.255713	274.308065	346.374810	-193.036148	177.764087	315.830972	-160.055135	450.800904	199.551135	-144.873108	345.775412	212.602023	-83.133729	368.640154	1025.313378	-460.191348	437.099983	975.363288	-448.077955	461.830558	994.506843	-426.347425	473.325401	891.995856	-448.664272	525.034662	756.138280	-414.675507	493.343959	750.655938	-309.485170	412.612434	705.114438	-450.865156	344.676061	651.642503	-441.411220	257.888349	635.302520	-451.003637	356.818472	625.597895	-415.191471	151.584810	581.487486	-452.585877	178.855955	580.051390	-371.400200	92.089809	623.544398	-414.838372	173.429695	341.808940	-382.689986	115.989038	426.346118	-458.591308	-213.623995	916.215256	-266.624569	-43.375940	85.452097	-474.884519	-51.726897	80.123766	-77.368372	
1254	6.2700	807.436305	1289.611130	-108.219920	768.653448	1352.933233	-408.170164	776.336302	1409.831061	-255.802800	735.540213	1247.852162	-273.623719	608.892401	1152.125107	81.506188	685.213131	968.148025	-33.146952	575.212605	1178.067486	-569.165242	689.881364	962.196952	-501.518338	192.923896	1237.794164	-283.295010	357.080394	1239.754782	-401.522930	325.151372	1219.511511	-123.667907	383.850294	1171.273336	-369.752425	355.497665	1155.650329	-151.488418	232.225467	1273.246681	-231.921027	244.273675	1282.796950	-317.815028	243.089300	1093.338707	-118.063318	285.301562	1144.603307	-451.669929	297.337928	984.890650	-99.088517	348.817491	912.595814	-93.877082	356.936736	825.136375	-101.461456	383.320906	925.939213	-99.212208	420.164166	689.749591	-119.924271	409.577010	686.001982	-227.765317	351.608174	603.193818	-92.288249	340.547826	515.768645	-103.051300	291.359221	445.764836	-105.471846	369.320984	507.092548	-127.550512	245.412041	319.303028	-114.712153	267.771139	338.421867	-193.548558	171.363871	308.698126	-160.343289	443.639708	190.215118	-145.184867	338.726755	204.464658	-83.285786	371.811470	1028.122684	-461.051062	441.461088	979.939026	-448.626092	465.576502	999.623729	-426.661612	479.928754	897.575536	-449.517170	534.619122	762.778637	-415.766243	502.578773	756.717281	-310.703886	422.779020	711.422371	-451.123898	354.389005	658.484850	-441.624078	267.668410	642.654497	-451.829915	366.257503	632.451639	-415.316503	160.439577	589.294624	-452.262004	187.294909	587.656499	-371.122197	101.084343	631.729649	-414.548224	180.521142	349.482736	-382.566274	123.841634	434.373835	-458.327579	-213.618222	916.219833	-266.649995	-43.371141	85.466827	-474.901219	-51.746879	80.141157	-77.363982	
